# xmcd CD database file
#
# Track frame offsets:
#	150
#	14265
#	29964
#	44068
#	59575
#	73541
#	88392
#	101696
#	116564
#	132763
#	147326
#	159955
#	175875
#	190276
#	204286
#	217568
#	233119
#	247080
#	263273
#	277788
#	292191
#
# Disc length: 4076 seconds
#
# Revision: 4
# Processed by: cddbd v1.5.2PL0 Copyright (c) Steve Scherf et al.
# Submitted via: CDex 1.70beta2
#
DISCID=390fea15
DTITLE=Bessie Smith - Nothing But The Blues:  Lady Luck Blues - Disc 1
DYEAR=1923
DGENRE=Blues
TTITLE0=Lady Luck Blues
TTITLE1=Outside Of That
TTITLE2=Keeps On A-Rainin'
TTITLE3=Down Hearted Blues
TTITLE4=Oh Daddy Blues
TTITLE5=Midnight Blues
TTITLE6=Baby Won't You Please Come Home
TTITLE7=Aggravatin' Papa
TTITLE8=If You Dont, I Know Who Will
TTITLE9=Jail House Blues
TTITLE10=Sam Jones Blues
TTITLE11=Nobody In Town Can Bake A Sweet Jelly Roll Like Mine
TTITLE12=Yodling Blues
TTITLE13=Bleeding Hearted Blues
TTITLE14=Mama's Got The Blues
TTITLE15=Taint Nobody's Bizness If I Do
TTITLE16=Gulf Coast Blues
TTITLE17=Beale Street Mama
TTITLE18=Frosty Morning Blues
TTITLE19=Mean Old Bedbug Blues
TTITLE20=Sweet Mistreater
EXTD=YEAR: 1923
EXTT0=
EXTT1=
EXTT2=
EXTT3=
EXTT4=
EXTT5=
EXTT6=
EXTT7=
EXTT8=
EXTT9=
EXTT10=
EXTT11=
EXTT12=
EXTT13=
EXTT14=
EXTT15=
EXTT16=
EXTT17=
EXTT18=
EXTT19=
EXTT20=
PLAYORDER=
